<mxfile host="65bd71144e">
    <diagram id="TKDJSDnixXdY6e3vda2z" name="第 1 页">
        <mxGraphModel dx="770" dy="759" grid="1" gridSize="10" guides="1" tooltips="1" connect="1" arrows="1" fold="1" page="1" pageScale="1" pageWidth="827" pageHeight="1169" math="0" shadow="0">
            <root>
                <mxCell id="0"/>
                <mxCell id="1" parent="0"/>
                <mxCell id="2" value="Show DataLabel" style="shape=umlFrame;whiteSpace=wrap;html=1;" vertex="1" parent="1">
                    <mxGeometry x="100" y="260" width="690" height="200" as="geometry"/>
                </mxCell>
                <mxCell id="3" value="Control View" style="shape=umlLifeline;participant=umlBoundary;perimeter=lifelinePerimeter;whiteSpace=wrap;html=1;container=1;collapsible=0;recursiveResize=0;verticalAlign=top;spacingTop=36;outlineConnect=0;" vertex="1" parent="1">
                    <mxGeometry x="240" y="180" width="50" height="300" as="geometry"/>
                </mxCell>
                <mxCell id="4" value="DocumentManager" style="shape=umlLifeline;participant=umlControl;perimeter=lifelinePerimeter;whiteSpace=wrap;html=1;container=1;collapsible=0;recursiveResize=0;verticalAlign=top;spacingTop=36;outlineConnect=0;" vertex="1" parent="1">
                    <mxGeometry x="580" y="180" width="40" height="300" as="geometry"/>
                </mxCell>
                <mxCell id="14" value="" style="html=1;points=[];perimeter=orthogonalPerimeter;" vertex="1" parent="4">
                    <mxGeometry x="15" y="130" width="10" height="70" as="geometry"/>
                </mxCell>
                <mxCell id="15" value="Update DataLabel" style="edgeStyle=none;html=1;" edge="1" parent="4" source="14" target="14">
                    <mxGeometry relative="1" as="geometry"/>
                </mxCell>
                <mxCell id="5" value="" style="shape=umlLifeline;participant=umlActor;perimeter=lifelinePerimeter;whiteSpace=wrap;html=1;container=1;collapsible=0;recursiveResize=0;verticalAlign=top;spacingTop=36;outlineConnect=0;" vertex="1" parent="1">
                    <mxGeometry x="160" y="180" width="20" height="300" as="geometry"/>
                </mxCell>
                <mxCell id="6" value="change argument" style="html=1;verticalAlign=bottom;endArrow=block;" edge="1" parent="1" source="5" target="3">
                    <mxGeometry x="0.0105" width="80" relative="1" as="geometry">
                        <mxPoint x="180" y="290" as="sourcePoint"/>
                        <mxPoint x="260" y="290" as="targetPoint"/>
                        <Array as="points">
                            <mxPoint x="230" y="290"/>
                        </Array>
                        <mxPoint as="offset"/>
                    </mxGeometry>
                </mxCell>
                <mxCell id="7" value="MainApplication" style="shape=umlLifeline;participant=umlControl;perimeter=lifelinePerimeter;whiteSpace=wrap;html=1;container=1;collapsible=0;recursiveResize=0;verticalAlign=top;spacingTop=36;outlineConnect=0;" vertex="1" parent="1">
                    <mxGeometry x="360" y="180" width="40" height="300" as="geometry"/>
                </mxCell>
                <mxCell id="8" value="" style="html=1;points=[];perimeter=orthogonalPerimeter;" vertex="1" parent="7">
                    <mxGeometry x="15" y="130" width="10" height="140" as="geometry"/>
                </mxCell>
                <mxCell id="9" value="sig DataLabel NewValue" style="html=1;verticalAlign=bottom;startArrow=oval;endArrow=block;startSize=8;" edge="1" parent="1" source="3" target="8">
                    <mxGeometry x="-0.0045" relative="1" as="geometry">
                        <mxPoint x="315" y="300" as="sourcePoint"/>
                        <Array as="points">
                            <mxPoint x="320" y="310"/>
                            <mxPoint x="350" y="310"/>
                        </Array>
                        <mxPoint as="offset"/>
                    </mxGeometry>
                </mxCell>
                <mxCell id="10" value="DataLabel Manager" style="shape=umlLifeline;participant=umlEntity;perimeter=lifelinePerimeter;whiteSpace=wrap;html=1;container=1;collapsible=0;recursiveResize=0;verticalAlign=top;spacingTop=36;outlineConnect=0;" vertex="1" parent="1">
                    <mxGeometry x="480" y="180" width="40" height="300" as="geometry"/>
                </mxCell>
                <mxCell id="11" value="change DataLabel Value" style="html=1;verticalAlign=bottom;endArrow=block;entryX=0;entryY=0;" edge="1" parent="1" target="14" source="8">
                    <mxGeometry relative="1" as="geometry">
                        <mxPoint x="380" y="300" as="sourcePoint"/>
                        <mxPoint as="offset"/>
                    </mxGeometry>
                </mxCell>
                <mxCell id="12" value="Updated DataList" style="html=1;verticalAlign=bottom;endArrow=open;dashed=1;endSize=8;exitX=0;exitY=0.95;" edge="1" parent="1" source="14" target="8">
                    <mxGeometry relative="1" as="geometry">
                        <mxPoint x="380" y="350" as="targetPoint"/>
                        <mxPoint as="offset"/>
                    </mxGeometry>
                </mxCell>
                <mxCell id="13" value="LabelView" style="shape=umlLifeline;participant=umlBoundary;perimeter=lifelinePerimeter;whiteSpace=wrap;html=1;container=1;collapsible=0;recursiveResize=0;verticalAlign=top;spacingTop=36;outlineConnect=0;" vertex="1" parent="1">
                    <mxGeometry x="670" y="180" width="50" height="300" as="geometry"/>
                </mxCell>
                <mxCell id="16" value="DataLabel isShowed" style="html=1;verticalAlign=bottom;startArrow=oval;startFill=1;endArrow=block;startSize=8;" edge="1" parent="1" source="8" target="10">
                    <mxGeometry x="0.0042" width="60" relative="1" as="geometry">
                        <mxPoint x="380" y="410" as="sourcePoint"/>
                        <mxPoint x="440" y="370" as="targetPoint"/>
                        <Array as="points">
                            <mxPoint x="410" y="400"/>
                            <mxPoint x="480" y="400"/>
                        </Array>
                        <mxPoint as="offset"/>
                    </mxGeometry>
                </mxCell>
                <mxCell id="18" value="yes DataLabel View" style="html=1;verticalAlign=bottom;startArrow=circle;startFill=1;endArrow=open;startSize=6;endSize=8;" edge="1" parent="1" source="10" target="7">
                    <mxGeometry width="80" relative="1" as="geometry">
                        <mxPoint x="600" y="430" as="sourcePoint"/>
                        <mxPoint x="520" y="430" as="targetPoint"/>
                        <Array as="points">
                            <mxPoint x="450" y="420"/>
                        </Array>
                        <mxPoint as="offset"/>
                    </mxGeometry>
                </mxCell>
                <mxCell id="19" value="Update LabelView" style="html=1;verticalAlign=bottom;startArrow=circle;startFill=1;endArrow=open;startSize=6;endSize=8;" edge="1" parent="1" source="8" target="13">
                    <mxGeometry width="80" relative="1" as="geometry">
                        <mxPoint x="400" y="440" as="sourcePoint"/>
                        <mxPoint x="480" y="440" as="targetPoint"/>
                        <Array as="points">
                            <mxPoint x="610" y="440"/>
                        </Array>
                    </mxGeometry>
                </mxCell>
            </root>
        </mxGraphModel>
    </diagram>
</mxfile>